# xmcd
#
# Track frame offsets:
#	150
#	9515
#	22398
#	32739
#	45040
#
# Disc length: 840 seconds
#
# Revision: 1
# Processed by: cddbd v1.5.2PL0 Copyright (c) Steve Scherf et al.
# Submitted via: audiograbber 1.83.01
#
DISCID=31034605
DTITLE=Hellblazer - Promo Summer 2002
DYEAR=2002
DGENRE=Grind
TTITLE0=Four
TTITLE1=Foul Is Fair And Fair Is Foul
TTITLE2=Witsore
TTITLE3=Born To Beg
TTITLE4=The Cleveland Torso Killer
EXTD=
EXTT0=
EXTT1=
EXTT2=
EXTT3=
EXTT4=
PLAYORDER=
